<svg width="124" height="19" viewBox="0 0 124 19" fill="none" xmlns="http://www.w3.org/2000/svg">
<path d="M17.7539 15.8242L14.2383 12.3086C14.0625 12.168 13.8516 12.0625 13.6406 12.0625H13.0781C14.0273 10.832 14.625 9.28516 14.625 7.5625C14.625 3.55469 11.3203 0.25 7.3125 0.25C3.26953 0.25 0 3.55469 0 7.5625C0 11.6055 3.26953 14.875 7.3125 14.875C9 14.875 10.5469 14.3125 11.8125 13.3281V13.9258C11.8125 14.1367 11.8828 14.3477 12.0586 14.5234L15.5391 18.0039C15.8906 18.3555 16.418 18.3555 16.7344 18.0039L17.7188 17.0195C18.0703 16.7031 18.0703 16.1758 17.7539 15.8242ZM7.3125 12.0625C4.81641 12.0625 2.8125 10.0586 2.8125 7.5625C2.8125 5.10156 4.81641 3.0625 7.3125 3.0625C9.77344 3.0625 11.8125 5.10156 11.8125 7.5625C11.8125 10.0586 9.77344 12.0625 7.3125 12.0625Z" fill="#FFB30E"/>
<path d="M31.3118 15.216C30.5438 15.216 29.7758 15.078 29.0078 14.802C28.2518 14.514 27.5738 14.088 26.9738 13.524L28.4858 11.706C28.9058 12.066 29.3678 12.36 29.8718 12.588C30.3878 12.816 30.8918 12.93 31.3838 12.93C31.9358 12.93 32.3438 12.828 32.6078 12.624C32.8838 12.42 33.0218 12.144 33.0218 11.796C33.0218 11.616 32.9798 11.46 32.8958 11.328C32.8238 11.196 32.7098 11.082 32.5538 10.986C32.4098 10.878 32.2298 10.782 32.0138 10.698C31.8098 10.602 31.5818 10.5 31.3298 10.392L29.7998 9.744C29.4998 9.624 29.2058 9.468 28.9178 9.276C28.6418 9.084 28.3898 8.862 28.1618 8.61C27.9458 8.346 27.7718 8.046 27.6398 7.71C27.5078 7.362 27.4418 6.972 27.4418 6.54C27.4418 6.06 27.5438 5.61 27.7478 5.19C27.9518 4.758 28.2398 4.386 28.6118 4.074C28.9838 3.75 29.4218 3.498 29.9258 3.318C30.4418 3.138 31.0058 3.048 31.6178 3.048C32.3018 3.048 32.9738 3.18 33.6338 3.444C34.3058 3.708 34.8938 4.092 35.3978 4.596L34.0478 6.27C33.6638 5.97 33.2798 5.742 32.8958 5.586C32.5118 5.418 32.0858 5.334 31.6178 5.334C31.1618 5.334 30.7958 5.43 30.5198 5.622C30.2558 5.802 30.1238 6.06 30.1238 6.396C30.1238 6.576 30.1658 6.732 30.2498 6.864C30.3458 6.984 30.4718 7.098 30.6278 7.206C30.7958 7.302 30.9878 7.398 31.2038 7.494C31.4198 7.578 31.6538 7.674 31.9058 7.782L33.4178 8.394C34.1378 8.682 34.7018 9.078 35.1098 9.582C35.5298 10.086 35.7398 10.752 35.7398 11.58C35.7398 12.072 35.6378 12.54 35.4337 12.984C35.2418 13.416 34.9538 13.8 34.5698 14.136C34.1978 14.46 33.7358 14.724 33.1838 14.928C32.6318 15.12 32.0078 15.216 31.3118 15.216ZM41.5117 15.216C40.8757 15.216 40.2817 15.114 39.7297 14.91C39.1777 14.694 38.6977 14.388 38.2897 13.992C37.8817 13.584 37.5637 13.092 37.3357 12.516C37.1077 11.94 36.9937 11.28 36.9937 10.536C36.9937 9.816 37.1137 9.168 37.3537 8.592C37.5937 8.004 37.9057 7.512 38.2897 7.116C38.6857 6.708 39.1357 6.396 39.6397 6.18C40.1437 5.964 40.6657 5.856 41.2057 5.856C41.8417 5.856 42.3937 5.964 42.8617 6.18C43.3417 6.396 43.7377 6.696 44.0497 7.08C44.3737 7.464 44.6137 7.92 44.7697 8.448C44.9257 8.964 45.0037 9.528 45.0037 10.14C45.0037 10.38 44.9917 10.608 44.9677 10.824C44.9437 11.04 44.9197 11.202 44.8957 11.31H39.5497C39.6697 11.958 39.9337 12.438 40.3417 12.75C40.7617 13.05 41.2717 13.2 41.8717 13.2C42.5077 13.2 43.1497 13.002 43.7977 12.606L44.6797 14.208C44.2237 14.52 43.7137 14.766 43.1497 14.946C42.5977 15.126 42.0517 15.216 41.5117 15.216ZM39.5317 9.564H42.7537C42.7537 9.06 42.6397 8.652 42.4117 8.34C42.1837 8.028 41.7997 7.872 41.2597 7.872C40.8397 7.872 40.4677 8.01 40.1437 8.286C39.8317 8.562 39.6277 8.988 39.5317 9.564ZM48.8888 15.216C48.4808 15.216 48.1088 15.144 47.7728 15C47.4488 14.868 47.1728 14.682 46.9448 14.442C46.7168 14.19 46.5368 13.902 46.4048 13.578C46.2848 13.254 46.2248 12.9 46.2248 12.516C46.2248 11.58 46.6208 10.848 47.4128 10.32C48.2048 9.792 49.4828 9.438 51.2468 9.258C51.2228 8.862 51.1028 8.55 50.8868 8.322C50.6828 8.082 50.3348 7.962 49.8428 7.962C49.4588 7.962 49.0748 8.034 48.6908 8.178C48.3188 8.322 47.9168 8.52 47.4848 8.772L46.5308 7.026C47.1068 6.678 47.7068 6.396 48.3308 6.18C48.9668 5.964 49.6388 5.856 50.3468 5.856C51.4988 5.856 52.3748 6.186 52.9748 6.846C53.5868 7.494 53.8928 8.508 53.8928 9.888V15H51.7328L51.5528 14.082H51.4808C51.0968 14.418 50.6948 14.694 50.2748 14.91C49.8548 15.114 49.3928 15.216 48.8888 15.216ZM49.7888 13.164C50.0888 13.164 50.3468 13.098 50.5628 12.966C50.7788 12.834 51.0068 12.648 51.2468 12.408V10.842C50.3108 10.974 49.6628 11.166 49.3028 11.418C48.9428 11.67 48.7628 11.97 48.7628 12.318C48.7628 12.606 48.8528 12.822 49.0328 12.966C49.2248 13.098 49.4768 13.164 49.7888 13.164ZM56.1309 15V6.072H58.2909L58.4709 7.638H58.5429C58.8669 7.026 59.2569 6.576 59.7129 6.288C60.1689 6 60.6249 5.856 61.0809 5.856C61.3329 5.856 61.5369 5.874 61.6929 5.91C61.8609 5.934 62.0109 5.976 62.1429 6.036L61.7109 8.322C61.5429 8.274 61.3869 8.238 61.2429 8.214C61.0989 8.19 60.9309 8.178 60.7389 8.178C60.4029 8.178 60.0489 8.298 59.6769 8.538C59.3169 8.778 59.0169 9.204 58.7769 9.816V15H56.1309ZM67.015 15.216C66.391 15.216 65.809 15.114 65.269 14.91C64.741 14.694 64.279 14.388 63.883 13.992C63.487 13.596 63.175 13.11 62.947 12.534C62.719 11.946 62.605 11.28 62.605 10.536C62.605 9.792 62.731 9.132 62.983 8.556C63.235 7.968 63.571 7.476 63.991 7.08C64.423 6.684 64.921 6.384 65.485 6.18C66.049 5.964 66.637 5.856 67.249 5.856C67.801 5.856 68.287 5.946 68.707 6.126C69.139 6.306 69.523 6.534 69.859 6.81L68.617 8.52C68.197 8.172 67.795 7.998 67.411 7.998C66.763 7.998 66.253 8.226 65.881 8.682C65.509 9.138 65.323 9.756 65.323 10.536C65.323 11.316 65.509 11.934 65.881 12.39C66.265 12.846 66.745 13.074 67.321 13.074C67.609 13.074 67.885 13.014 68.149 12.894C68.425 12.762 68.683 12.606 68.923 12.426L69.967 14.154C69.523 14.538 69.043 14.814 68.527 14.982C68.011 15.138 67.507 15.216 67.015 15.216ZM71.5294 15V2.382H74.1754V5.478L74.0494 7.08C74.3854 6.78 74.7754 6.504 75.2194 6.252C75.6634 5.988 76.1914 5.856 76.8034 5.856C77.7754 5.856 78.4774 6.174 78.9094 6.81C79.3534 7.446 79.5754 8.328 79.5754 9.456V15H76.9294V9.798C76.9294 9.15 76.8394 8.706 76.6594 8.466C76.4914 8.226 76.2154 8.106 75.8314 8.106C75.4954 8.106 75.2074 8.184 74.9674 8.34C74.7274 8.484 74.4634 8.694 74.1754 8.97V15H71.5294ZM85.6321 15V3.264H93.0301V5.496H88.2781V8.214H92.3461V10.446H88.2781V15H85.6321ZM98.3731 15.216C97.8091 15.216 97.2631 15.114 96.7351 14.91C96.2071 14.694 95.7391 14.388 95.3311 13.992C94.9351 13.596 94.6171 13.11 94.3771 12.534C94.1371 11.946 94.0171 11.28 94.0171 10.536C94.0171 9.792 94.1371 9.132 94.3771 8.556C94.6171 7.968 94.9351 7.476 95.3311 7.08C95.7391 6.684 96.2071 6.384 96.7351 6.18C97.2631 5.964 97.8091 5.856 98.3731 5.856C98.9371 5.856 99.4771 5.964 99.9931 6.18C100.521 6.384 100.983 6.684 101.379 7.08C101.787 7.476 102.111 7.968 102.351 8.556C102.591 9.132 102.711 9.792 102.711 10.536C102.711 11.28 102.591 11.946 102.351 12.534C102.111 13.11 101.787 13.596 101.379 13.992C100.983 14.388 100.521 14.694 99.9931 14.91C99.4771 15.114 98.9371 15.216 98.3731 15.216ZM98.3731 13.074C98.9131 13.074 99.3211 12.846 99.5971 12.39C99.8731 11.934 100.011 11.316 100.011 10.536C100.011 9.756 99.8731 9.138 99.5971 8.682C99.3211 8.226 98.9131 7.998 98.3731 7.998C97.8211 7.998 97.4071 8.226 97.1311 8.682C96.8671 9.138 96.7351 9.756 96.7351 10.536C96.7351 11.316 96.8671 11.934 97.1311 12.39C97.4071 12.846 97.8211 13.074 98.3731 13.074ZM108.358 15.216C107.794 15.216 107.248 15.114 106.72 14.91C106.192 14.694 105.724 14.388 105.316 13.992C104.92 13.596 104.602 13.11 104.362 12.534C104.122 11.946 104.002 11.28 104.002 10.536C104.002 9.792 104.122 9.132 104.362 8.556C104.602 7.968 104.92 7.476 105.316 7.08C105.724 6.684 106.192 6.384 106.72 6.18C107.248 5.964 107.794 5.856 108.358 5.856C108.922 5.856 109.462 5.964 109.978 6.18C110.506 6.384 110.968 6.684 111.364 7.08C111.772 7.476 112.096 7.968 112.336 8.556C112.576 9.132 112.696 9.792 112.696 10.536C112.696 11.28 112.576 11.946 112.336 12.534C112.096 13.11 111.772 13.596 111.364 13.992C110.968 14.388 110.506 14.694 109.978 14.91C109.462 15.114 108.922 15.216 108.358 15.216ZM108.358 13.074C108.898 13.074 109.306 12.846 109.582 12.39C109.858 11.934 109.996 11.316 109.996 10.536C109.996 9.756 109.858 9.138 109.582 8.682C109.306 8.226 108.898 7.998 108.358 7.998C107.806 7.998 107.392 8.226 107.116 8.682C106.852 9.138 106.72 9.756 106.72 10.536C106.72 11.316 106.852 11.934 107.116 12.39C107.392 12.846 107.806 13.074 108.358 13.074ZM117.694 15.216C117.142 15.216 116.638 15.108 116.182 14.892C115.738 14.676 115.354 14.37 115.03 13.974C114.718 13.566 114.472 13.074 114.292 12.498C114.124 11.922 114.04 11.268 114.04 10.536C114.04 9.804 114.142 9.15 114.346 8.574C114.562 7.998 114.838 7.512 115.174 7.116C115.522 6.708 115.918 6.396 116.362 6.18C116.818 5.964 117.28 5.856 117.748 5.856C118.252 5.856 118.666 5.94 118.99 6.108C119.314 6.276 119.632 6.504 119.944 6.792L119.836 5.424V2.382H122.482V15H120.322L120.142 14.118H120.07C119.758 14.43 119.392 14.694 118.972 14.91C118.552 15.114 118.126 15.216 117.694 15.216ZM118.378 13.056C118.666 13.056 118.924 12.996 119.152 12.876C119.392 12.756 119.62 12.546 119.836 12.246V8.592C119.596 8.376 119.35 8.226 119.098 8.142C118.846 8.058 118.6 8.016 118.36 8.016C117.94 8.016 117.568 8.22 117.244 8.628C116.92 9.024 116.758 9.648 116.758 10.5C116.758 11.388 116.896 12.036 117.172 12.444C117.46 12.852 117.862 13.056 118.378 13.056Z" fill="#424242"/>
</svg>
